<?xml version="1.0" standalone="no"?>
<!DOCTYPE svg PUBLIC "-//W3C//DTD SVG 20010904//EN"
 "http://www.w3.org/TR/2001/REC-SVG-20010904/DTD/svg10.dtd">
<svg version="1.0" xmlns="http://www.w3.org/2000/svg"
 width="512.000000pt" height="512.000000pt" viewBox="0 0 512.000000 512.000000"
 preserveAspectRatio="xMidYMid meet">
<metadata>
Created by potrace 1.14, written by Peter Selinger 2001-2017
</metadata>
<g transform="translate(0.000000,512.000000) scale(0.100000,-0.100000)"
fill="#000000" stroke="none">
<path d="M2450 5103 c-36 -8 -76 -15 -90 -16 -14 -1 -27 -4 -30 -7 -3 -4 -41
-19 -85 -34 -84 -28 -281 -122 -303 -143 -7 -7 -18 -13 -24 -13 -19 0 -142
-133 -191 -207 -80 -121 -137 -261 -164 -408 -7 -37 -9 -202 -4 -385 2 -98 -2
-241 -7 -236 -2 2 -6 19 -9 38 -10 65 -45 98 -83 78 -34 -18 -43 -58 -44 -215
-2 -169 6 -219 40 -242 22 -14 26 -14 48 1 13 8 27 29 31 46 10 47 22 35 20
-22 -2 -64 12 -108 38 -127 19 -13 19 -23 13 -200 -4 -102 -8 -199 -10 -216
-2 -16 -7 -57 -10 -90 -13 -128 -21 -183 -41 -290 -22 -120 -22 -118 -50 -222
-31 -112 -41 -125 -219 -269 -148 -119 -187 -154 -356 -324 -353 -353 -513
-637 -514 -910 0 -103 1 -107 42 -194 123 -261 301 -400 602 -472 70 -17 168
-18 1460 -21 1327 -2 1390 -1 1495 17 401 70 638 242 699 506 13 60 14 196 1
264 -17 91 -67 212 -148 357 -101 180 -366 476 -634 708 -164 142 -182 163
-216 243 -61 144 -160 443 -182 552 -2 8 -10 44 -18 80 -8 36 -18 88 -23 115
-4 28 -8 52 -9 55 0 3 -5 37 -9 75 -5 39 -10 77 -11 86 -2 9 -5 41 -6 70 l-3
54 35 5 c46 8 54 14 73 54 23 50 24 552 0 597 -9 18 -13 42 -9 57 32 149 25
411 -14 540 -5 18 -10 33 -9 35 2 12 -29 103 -51 147 -54 111 -97 161 -240
279 -79 65 -209 125 -320 146 -12 2 -50 15 -84 29 -120 47 -246 57 -377 29z
m-893 -1478 c0 -8 -4 -12 -9 -9 -5 3 -6 10 -3 15 9 13 12 11 12 -6z m1 -76
c-3 -8 -7 -3 -11 10 -4 17 -3 21 5 13 5 -5 8 -16 6 -23z m-1 -86 c-3 -10 -5
-4 -5 12 0 17 2 24 5 18 2 -7 2 -21 0 -30z"/>
<path d="M3603 3747 c-22 -31 -23 -43 -23 -205 0 -100 4 -181 11 -195 16 -35
45 -50 70 -36 39 21 49 68 49 234 0 165 -8 203 -49 225 -29 15 -34 13 -58 -23z"/>
</g>
</svg>
